<svg xmlns="http://www.w3.org/2000/svg" version="1.1" viewBox="0 0 357.97 74.3">
  <defs>
    <style>
      .pvks-o { fill: #f6911e; }
      .pvks-d { fill: #454546; }
    </style>
  </defs>
  <g>
    <g id="Layer_1">
      <g>
        <path class="pvks-o" d="M319.08,1.73v42.75h-19.39c-9.09,0-15.9-4.82-15.9-13.85v-.6c0-6.5,3.43-10.78,8.79-12.7l-10.06-15.59h11.14l8.91,14.45h6.44V1.73h10.05ZM309.02,24.43h-8.25c-3.85,0-6.5,1.69-6.5,5.6v.6c0,3.91,2.65,5.6,6.5,5.6h8.25v-11.8Z"/>
        <path class="pvks-o" d="M331.22,17.43c-.21.08-.41.16-.61.24-.21.09-.42.19-.63.29-.28.14-.56.28-.83.43-.21.12-.41.23-.61.36-.16.1-.31.2-.46.31-.21.14-.41.29-.61.45-.11.09-.23.18-.34.27-.3.25-.58.51-.85.78-.08.08-.15.16-.22.24-.22.23-.42.47-.62.72-.07.09-.14.17-.2.26-.5.66-.93,1.38-1.29,2.16-.04.09-.08.17-.11.26-.15.34-.28.69-.4,1.05-.02.07-.05.13-.07.2-.13.43-.25.87-.34,1.32-.02.08-.03.17-.05.26-.07.37-.13.76-.17,1.15-.01.13-.03.25-.04.38-.04.48-.07.97-.07,1.48v.6c0,1.13.11,2.19.31,3.19.1.47.22.92.36,1.36.05.14.1.28.15.42.1.29.21.58.33.85.07.16.15.31.22.46.12.25.24.49.38.72.09.15.18.3.28.45.14.22.29.44.44.65.1.14.21.28.32.42.17.21.34.41.52.6.11.12.22.25.34.36.21.21.42.4.64.59.11.09.21.19.32.28.67.55,1.41,1.03,2.2,1.45.13.07.27.13.4.19.27.13.55.27.83.39.16.07.33.13.5.19.27.1.54.2.81.29.18.06.36.11.55.17.28.08.56.15.84.22.19.05.38.09.57.13.3.06.6.11.9.16.19.03.38.06.57.09.34.04.68.08,1.03.11.17.01.33.03.5.05.52.03,1.04.05,1.58.05h19.39V1.73h-10.05v14.45h-9.33c-2.71,0-5.19.43-7.37,1.25ZM347.92,24.43v11.8h-8.25c-3.85,0-6.5-1.69-6.5-5.6v-.6c0-3.91,2.65-5.6,6.5-5.6h8.25Z"/>
        <path class="pvks-o" d="M259.63,46.21c12.76,0,23.11-10.34,23.11-23.11S272.39,0,259.63,0s-23.11,10.34-23.11,23.11,10.34,23.11,23.11,23.11ZM259.63,10.08c7.19,0,13.02,5.83,13.02,13.02s-5.83,13.02-13.02,13.02-13.02-5.83-13.02-13.02,5.83-13.02,13.02-13.02Z"/>
        <path class="pvks-o" d="M224.38,1.73l14.57,42.75h-10.84l-9.57-28.43-9.57,28.43h-10.48L213.12,1.73h11.26Z"/>
        <path class="pvks-o" d="M151.77,1.73v42.75h-10.24v-16.92l-14.75,16.92h-11.62l16.14-18L114.44,1.73h11.62l12.1,17.94,3.37-3.73V1.73h10.24Z"/>
        <path class="pvks-o" d="M79.05,44.48v-8.25h22.04s0-11.8,0-11.8h-19.33v-8.28h19.33s0-6.17,0-6.17h-21.56V1.73h31.55v42.75h-32.03Z"/>
        <path class="pvks-o" d="M74.11,1.73v42.75h-19.39c-9.09,0-15.9-4.82-15.9-13.85v-.6c0-6.5,3.43-10.78,8.79-12.7L37.57,1.73h11.14l8.91,14.45h6.44V1.73h10.05ZM64.06,24.43h-8.25c-3.85,0-6.5,1.69-6.5,5.6v.6c0,3.91,2.65,5.6,6.5,5.6h8.25v-11.8Z"/>
        <path class="pvks-o" d="M15.41,27.56c8.13,1.32,9.33,2.71,9.33,5.18v.18c0,2.53-2.05,4.46-6.38,4.46s-7.16-1.93-7.59-5.96H.72c.72,8.97,7.47,13.85,17.46,13.85s16.62-4.94,16.62-12.76v-.42c0-7.04-4.4-10.9-14.69-12.76-8.07-1.44-9.99-2.71-9.99-5.6v-.24c0-2.89,2.65-4.58,7.16-4.58,5.03,0,8.58,2.23,8.9,6.73,0,.13,0,.52,0,.52h10.07v-.53h0C35.6,6.46,28.81.95,17.52.95,7.35.95,0,6.07,0,14.37v.48c0,7.41,5.6,11.08,15.41,12.7Z"/>
        <path class="pvks-d" d="M177.94,46.21c12.76,0,23.11-10.34,23.11-23.11S190.7,0,177.94,0s-23.11,10.34-23.11,23.11,10.34,23.11,23.11,23.11ZM177.94,10.08c7.19,0,13.02,5.83,13.02,13.02s-5.83,13.02-13.02,13.02-13.02-5.83-13.02-13.02,5.83-13.02,13.02-13.02Z"/>
        <g>
          <path class="pvks-d" d="M1.03,66.54c0-4.28,3.47-7.75,7.75-7.75,2.87,0,5.38,1.57,6.72,3.89l-1.39.81c-1.03-1.88-3-3.16-5.33-3.16-3.47,0-6.1,2.81-6.1,6.22s2.63,6.22,6.1,6.22c2.63,0,4.51-1.39,5.5-3.39l1.43.74c-1.3,2.48-3.78,4.18-6.93,4.18-4.28,0-7.75-3.47-7.75-7.75Z"/>
          <path class="pvks-d" d="M35.61,67.27h-7.96v6.82h-1.61v-15.09h1.61v6.72h7.96v-6.72h1.61v15.09h-1.61v-6.82Z"/>
          <path class="pvks-d" d="M53.39,59h1.74l5.73,15.09h-1.67l-1.47-3.83h-6.88l-1.45,3.83h-1.7l5.71-15.09ZM51.41,68.73h5.73l-2.87-7.57-2.85,7.57Z"/>
          <path class="pvks-d" d="M71.32,59h1.61v13.54h6.74v1.55h-8.35v-15.09Z"/>
          <path class="pvks-d" d="M90.62,59h1.61v13.54h6.74v1.55h-8.35v-15.09Z"/>
          <path class="pvks-d" d="M109.91,59h9.16v1.53h-7.55v5.23h7.55v1.53h-7.55v5.25h7.55v1.55h-9.16v-15.09Z"/>
          <path class="pvks-d" d="M130.08,59h1.8l8.89,12.53v-12.53h1.61v15.09h-1.72l-8.97-12.63v12.63h-1.61v-15.09Z"/>
          <path class="pvks-d" d="M153.18,66.54c0-4.28,3.31-7.75,7.9-7.75,2.92,0,5.38,1.55,6.7,3.93l-1.41.81c-1.01-1.92-2.92-3.2-5.29-3.2-3.78,0-6.24,2.81-6.24,6.22s2.58,6.22,6.16,6.22,5.56-2.25,5.93-5.19h-6.06v-1.53h7.73v.46c0,4.16-2.71,7.79-7.61,7.79-4.38,0-7.82-3.47-7.82-7.75Z"/>
          <path class="pvks-d" d="M179.56,59h1.61v15.09h-1.61v-15.09Z"/>
          <path class="pvks-d" d="M192.61,59h1.8l8.89,12.53v-12.53h1.61v15.09h-1.72l-8.97-12.63v12.63h-1.61v-15.09Z"/>
          <path class="pvks-d" d="M215.71,66.54c0-4.28,3.31-7.75,7.9-7.75,2.92,0,5.38,1.55,6.7,3.93l-1.41.81c-1.01-1.92-2.92-3.2-5.29-3.2-3.78,0-6.24,2.81-6.24,6.22s2.58,6.22,6.16,6.22,5.56-2.25,5.93-5.19h-6.06v-1.53h7.73v.46c0,4.16-2.71,7.79-7.61,7.79-4.38,0-7.82-3.47-7.82-7.75Z"/>
          <path class="pvks-d" d="M255.36,59h1.61v13.54h6.74v1.55h-8.35v-15.09Z"/>
          <path class="pvks-d" d="M274.84,59h1.61v15.09h-1.61v-15.09Z"/>
          <path class="pvks-d" d="M287.89,59h1.59l5.73,7.92,5.91-7.92h1.55v15.09h-1.61v-12.49l-5.89,7.94-5.67-7.73v12.28h-1.61v-15.09Z"/>
          <path class="pvks-d" d="M314.11,59h1.61v15.09h-1.61v-15.09Z"/>
          <path class="pvks-d" d="M331.17,60.48h-4.55v-1.49h10.69v1.49h-4.53v13.6h-1.61v-13.6Z"/>
          <path class="pvks-d" d="M346.8,71.53l1.36-1.03c1.01,1.57,2.25,2.34,3.97,2.34,1.88,0,3.21-1.2,3.21-2.85,0-1.86-1.8-2.44-3.68-3.08-2.07-.7-4.22-1.57-4.22-4.2,0-2.19,1.99-3.91,4.63-3.91,2.13,0,3.58.85,4.67,2.27l-1.28.95c-.76-1.2-1.88-1.8-3.41-1.8-1.7,0-2.98,1.08-2.98,2.48,0,1.74,1.74,2.29,3.6,2.94,2.09.72,4.3,1.59,4.3,4.34,0,2.23-1.92,4.32-4.84,4.32-2.44,0-4.11-1.03-5.33-2.77Z"/>
        </g>
      </g>
    </g>
  </g>
</svg>
